<mxfile host="65bd71144e">
    <diagram id="dfBLtA8hLqsOM8OdGN3b" name="Page-1">
        <mxGraphModel dx="1762" dy="604" grid="1" gridSize="10" guides="1" tooltips="1" connect="1" arrows="1" fold="1" page="1" pageScale="1" pageWidth="827" pageHeight="1169" math="0" shadow="0">
            <root>
                <mxCell id="0"/>
                <mxCell id="1" parent="0"/>
                <mxCell id="22" value="" style="edgeStyle=none;html=1;fontSize=18;dashed=1;endArrow=open;endFill=0;" parent="1" source="2" target="21" edge="1">
                    <mxGeometry relative="1" as="geometry"/>
                </mxCell>
                <mxCell id="2" value="provider" style="rounded=0;whiteSpace=wrap;html=1;" parent="1" vertex="1">
                    <mxGeometry x="170" y="320" width="100" height="40" as="geometry"/>
                </mxCell>
                <mxCell id="44" style="edgeStyle=none;html=1;exitX=0.25;exitY=0;exitDx=0;exitDy=0;entryX=0.5;entryY=1;entryDx=0;entryDy=0;dashed=1;fontSize=18;endArrow=open;endFill=0;fillColor=#d5e8d4;strokeColor=#82b366;jumpStyle=arc;rounded=1;strokeWidth=2;" parent="1" source="3" target="2" edge="1">
                    <mxGeometry relative="1" as="geometry">
                        <Array as="points">
                            <mxPoint x="240" y="420"/>
                            <mxPoint x="220" y="420"/>
                        </Array>
                    </mxGeometry>
                </mxCell>
                <mxCell id="45" style="edgeStyle=none;html=1;exitX=0.5;exitY=0;exitDx=0;exitDy=0;entryX=0.5;entryY=1;entryDx=0;entryDy=0;dashed=1;fontSize=18;endArrow=open;endFill=0;fillColor=#d5e8d4;strokeColor=#82b366;jumpStyle=arc;rounded=1;strokeWidth=2;" parent="1" source="3" target="17" edge="1">
                    <mxGeometry relative="1" as="geometry">
                        <Array as="points">
                            <mxPoint x="270" y="400"/>
                            <mxPoint x="354" y="400"/>
                        </Array>
                    </mxGeometry>
                </mxCell>
                <mxCell id="52" style="edgeStyle=none;html=1;exitX=0.75;exitY=0;exitDx=0;exitDy=0;entryX=0;entryY=0.25;entryDx=0;entryDy=0;dashed=1;fontSize=18;endArrow=open;endFill=0;jumpStyle=arc;rounded=1;fillColor=#d5e8d4;strokeColor=#82b366;strokeWidth=2;" parent="1" source="3" target="7" edge="1">
                    <mxGeometry relative="1" as="geometry">
                        <Array as="points">
                            <mxPoint x="300" y="430"/>
                            <mxPoint x="700" y="430"/>
                            <mxPoint x="700" y="378"/>
                        </Array>
                    </mxGeometry>
                </mxCell>
                <mxCell id="4" value="Maybe?" style="text;html=1;strokeColor=none;fillColor=none;align=center;verticalAlign=middle;whiteSpace=wrap;rounded=0;fontStyle=1;fontSize=18;" parent="1" vertex="1">
                    <mxGeometry x="354" y="40" width="120" height="50" as="geometry"/>
                </mxCell>
                <mxCell id="5" value="CLI?&lt;br&gt;WEB UI?" style="rounded=0;whiteSpace=wrap;html=1;" parent="1" vertex="1">
                    <mxGeometry x="350" y="730" width="120" height="60" as="geometry"/>
                </mxCell>
                <mxCell id="6" value="data feed&lt;br&gt;&lt;i&gt;coingecko?&lt;br&gt;coinmarketcap?&lt;/i&gt;" style="rounded=0;whiteSpace=wrap;html=1;" parent="1" vertex="1">
                    <mxGeometry x="480" y="730" width="120" height="60" as="geometry"/>
                </mxCell>
                <mxCell id="9" value="in memory?&lt;br&gt;database?" style="rounded=0;whiteSpace=wrap;html=1;" parent="1" vertex="1">
                    <mxGeometry x="1040" y="500" width="120" height="60" as="geometry"/>
                </mxCell>
                <mxCell id="24" value="" style="edgeStyle=none;html=1;dashed=1;fontSize=18;endArrow=open;endFill=0;" parent="1" source="10" target="11" edge="1">
                    <mxGeometry relative="1" as="geometry"/>
                </mxCell>
                <mxCell id="11" value="Exchange 1" style="rounded=0;whiteSpace=wrap;html=1;fillColor=#60a917;fontColor=#ffffff;strokeColor=#2D7600;" parent="1" vertex="1">
                    <mxGeometry x="160" y="110" width="120" height="30" as="geometry"/>
                </mxCell>
                <mxCell id="14" value="DEX 1" style="rounded=0;whiteSpace=wrap;html=1;fillColor=#1ba1e2;fontColor=#ffffff;strokeColor=#006EAF;" parent="1" vertex="1">
                    <mxGeometry x="294" y="110" width="120" height="30" as="geometry"/>
                </mxCell>
                <mxCell id="25" value="" style="edgeStyle=none;html=1;dashed=1;fontSize=18;endArrow=open;endFill=0;" parent="1" source="15" target="14" edge="1">
                    <mxGeometry relative="1" as="geometry"/>
                </mxCell>
                <mxCell id="23" value="" style="edgeStyle=none;html=1;dashed=1;fontSize=18;endArrow=open;endFill=0;" parent="1" source="17" target="20" edge="1">
                    <mxGeometry relative="1" as="geometry"/>
                </mxCell>
                <mxCell id="17" value="provider" style="rounded=0;whiteSpace=wrap;html=1;" parent="1" vertex="1">
                    <mxGeometry x="304" y="320" width="100" height="40" as="geometry"/>
                </mxCell>
                <mxCell id="26" value="" style="group" parent="1" vertex="1" connectable="0">
                    <mxGeometry x="180" y="220" width="80" height="70" as="geometry"/>
                </mxCell>
                <mxCell id="10" value="connector&lt;br&gt;&lt;font style=&quot;font-size: 8px&quot; color=&quot;#cccccc&quot;&gt;(WS / REST)&lt;/font&gt;" style="rounded=0;whiteSpace=wrap;html=1;" parent="26" vertex="1">
                    <mxGeometry width="80" height="50" as="geometry"/>
                </mxCell>
                <mxCell id="21" value="adapter" style="rounded=0;whiteSpace=wrap;html=1;" parent="26" vertex="1">
                    <mxGeometry y="50" width="80" height="20" as="geometry"/>
                </mxCell>
                <mxCell id="27" value="" style="group" parent="1" vertex="1" connectable="0">
                    <mxGeometry x="314" y="220" width="80" height="70" as="geometry"/>
                </mxCell>
                <mxCell id="15" value="connector&lt;br&gt;&lt;font color=&quot;#cccccc&quot; style=&quot;font-size: 8px&quot;&gt;(WS / REST)&lt;/font&gt;" style="rounded=0;whiteSpace=wrap;html=1;" parent="27" vertex="1">
                    <mxGeometry width="80" height="50" as="geometry"/>
                </mxCell>
                <mxCell id="20" value="adapter" style="rounded=0;whiteSpace=wrap;html=1;" parent="27" vertex="1">
                    <mxGeometry y="50" width="80" height="20" as="geometry"/>
                </mxCell>
                <mxCell id="46" style="edgeStyle=none;html=1;exitX=0.25;exitY=0;exitDx=0;exitDy=0;dashed=1;fontSize=18;endArrow=open;endFill=0;fillColor=#dae8fc;strokeColor=#6c8ebf;jumpStyle=arc;rounded=1;strokeWidth=2;entryX=0.25;entryY=1;entryDx=0;entryDy=0;" parent="1" source="29" target="17" edge="1">
                    <mxGeometry relative="1" as="geometry">
                        <Array as="points">
                            <mxPoint x="380" y="460"/>
                            <mxPoint x="329" y="460"/>
                        </Array>
                    </mxGeometry>
                </mxCell>
                <mxCell id="53" style="edgeStyle=none;html=1;exitX=0.5;exitY=0;exitDx=0;exitDy=0;entryX=0;entryY=0.25;entryDx=0;entryDy=0;dashed=1;fontSize=18;endArrow=open;endFill=0;jumpStyle=arc;rounded=1;fillColor=#dae8fc;strokeColor=#6c8ebf;strokeWidth=2;" parent="1" source="29" target="7" edge="1">
                    <mxGeometry relative="1" as="geometry">
                        <Array as="points">
                            <mxPoint x="410" y="440"/>
                            <mxPoint x="710" y="440"/>
                            <mxPoint x="710" y="378"/>
                        </Array>
                    </mxGeometry>
                </mxCell>
                <mxCell id="30" value="Exchange 2" style="rounded=0;whiteSpace=wrap;html=1;fillColor=#60a917;fontColor=#ffffff;strokeColor=#2D7600;" parent="1" vertex="1">
                    <mxGeometry x="430" y="110" width="120" height="30" as="geometry"/>
                </mxCell>
                <mxCell id="31" value="" style="edgeStyle=none;html=1;dashed=1;fontSize=18;endArrow=open;endFill=0;" parent="1" source="35" target="30" edge="1">
                    <mxGeometry relative="1" as="geometry"/>
                </mxCell>
                <mxCell id="32" value="" style="edgeStyle=none;html=1;dashed=1;fontSize=18;endArrow=open;endFill=0;" parent="1" source="33" target="36" edge="1">
                    <mxGeometry relative="1" as="geometry"/>
                </mxCell>
                <mxCell id="33" value="provider" style="rounded=0;whiteSpace=wrap;html=1;" parent="1" vertex="1">
                    <mxGeometry x="440" y="320" width="100" height="40" as="geometry"/>
                </mxCell>
                <mxCell id="34" value="" style="group" parent="1" vertex="1" connectable="0">
                    <mxGeometry x="450" y="220" width="80" height="70" as="geometry"/>
                </mxCell>
                <mxCell id="35" value="connector&lt;br&gt;&lt;font color=&quot;#cccccc&quot; style=&quot;font-size: 8px&quot;&gt;(WS / REST)&lt;/font&gt;" style="rounded=0;whiteSpace=wrap;html=1;" parent="34" vertex="1">
                    <mxGeometry width="80" height="50" as="geometry"/>
                </mxCell>
                <mxCell id="36" value="adapter" style="rounded=0;whiteSpace=wrap;html=1;" parent="34" vertex="1">
                    <mxGeometry y="50" width="80" height="20" as="geometry"/>
                </mxCell>
                <mxCell id="37" value="Exchange 3" style="rounded=0;whiteSpace=wrap;html=1;fillColor=#60a917;fontColor=#ffffff;strokeColor=#2D7600;" parent="1" vertex="1">
                    <mxGeometry x="570" y="110" width="120" height="30" as="geometry"/>
                </mxCell>
                <mxCell id="38" value="" style="edgeStyle=none;html=1;dashed=1;fontSize=18;endArrow=open;endFill=0;" parent="1" source="42" target="37" edge="1">
                    <mxGeometry relative="1" as="geometry"/>
                </mxCell>
                <mxCell id="39" value="" style="edgeStyle=none;html=1;dashed=1;fontSize=18;endArrow=open;endFill=0;" parent="1" source="40" target="43" edge="1">
                    <mxGeometry relative="1" as="geometry"/>
                </mxCell>
                <mxCell id="40" value="provider" style="rounded=0;whiteSpace=wrap;html=1;" parent="1" vertex="1">
                    <mxGeometry x="580" y="320" width="100" height="40" as="geometry"/>
                </mxCell>
                <mxCell id="41" value="" style="group" parent="1" vertex="1" connectable="0">
                    <mxGeometry x="590" y="220" width="80" height="70" as="geometry"/>
                </mxCell>
                <mxCell id="42" value="connector&lt;br&gt;&lt;font color=&quot;#cccccc&quot; style=&quot;font-size: 8px&quot;&gt;(WS / REST)&lt;/font&gt;" style="rounded=0;whiteSpace=wrap;html=1;" parent="41" vertex="1">
                    <mxGeometry width="80" height="50" as="geometry"/>
                </mxCell>
                <mxCell id="43" value="adapter" style="rounded=0;whiteSpace=wrap;html=1;" parent="41" vertex="1">
                    <mxGeometry y="50" width="80" height="20" as="geometry"/>
                </mxCell>
                <mxCell id="48" style="edgeStyle=none;html=1;exitX=0.5;exitY=0;exitDx=0;exitDy=0;entryX=0.5;entryY=1;entryDx=0;entryDy=0;dashed=1;fontSize=18;endArrow=open;endFill=0;fillColor=#e1d5e7;strokeColor=#9673a6;jumpStyle=arc;rounded=1;strokeWidth=2;" parent="1" source="47" target="40" edge="1">
                    <mxGeometry relative="1" as="geometry">
                        <Array as="points">
                            <mxPoint x="550" y="460"/>
                            <mxPoint x="630" y="460"/>
                        </Array>
                    </mxGeometry>
                </mxCell>
                <mxCell id="49" style="edgeStyle=none;html=1;exitX=0.25;exitY=0;exitDx=0;exitDy=0;entryX=0.5;entryY=1;entryDx=0;entryDy=0;dashed=1;fontSize=18;endArrow=open;endFill=0;fillColor=#e1d5e7;strokeColor=#9673a6;jumpStyle=arc;rounded=1;strokeWidth=2;" parent="1" source="47" target="33" edge="1">
                    <mxGeometry relative="1" as="geometry">
                        <Array as="points">
                            <mxPoint x="520" y="420"/>
                            <mxPoint x="490" y="420"/>
                        </Array>
                    </mxGeometry>
                </mxCell>
                <mxCell id="50" style="edgeStyle=none;html=1;exitX=0.25;exitY=0;exitDx=0;exitDy=0;entryX=0.5;entryY=1;entryDx=0;entryDy=0;dashed=1;fontSize=18;endArrow=open;endFill=0;fillColor=#e1d5e7;strokeColor=#9673a6;jumpStyle=arc;rounded=1;strokeWidth=2;" parent="1" source="47" target="17" edge="1">
                    <mxGeometry relative="1" as="geometry">
                        <Array as="points">
                            <mxPoint x="520" y="420"/>
                            <mxPoint x="354" y="420"/>
                        </Array>
                    </mxGeometry>
                </mxCell>
                <mxCell id="51" style="edgeStyle=none;html=1;exitX=0.75;exitY=0;exitDx=0;exitDy=0;dashed=1;fontSize=18;endArrow=open;endFill=0;jumpStyle=arc;rounded=1;fillColor=#e1d5e7;strokeColor=#9673a6;entryX=0;entryY=0.25;entryDx=0;entryDy=0;strokeWidth=2;" parent="1" source="47" target="7" edge="1">
                    <mxGeometry relative="1" as="geometry">
                        <mxPoint x="750" y="360" as="targetPoint"/>
                        <Array as="points">
                            <mxPoint x="580" y="470"/>
                            <mxPoint x="720" y="470"/>
                            <mxPoint x="720" y="378"/>
                        </Array>
                    </mxGeometry>
                </mxCell>
                <mxCell id="54" style="edgeStyle=none;rounded=1;jumpStyle=arc;html=1;exitX=0.75;exitY=0;exitDx=0;exitDy=0;entryX=0;entryY=0.5;entryDx=0;entryDy=0;fontSize=18;endArrow=open;endFill=0;strokeColor=#666666;strokeWidth=1;dashed=1;fillColor=#f5f5f5;" parent="1" source="10" target="58" edge="1">
                    <mxGeometry relative="1" as="geometry">
                        <Array as="points">
                            <mxPoint x="240" y="160"/>
                            <mxPoint x="700" y="160"/>
                            <mxPoint x="700" y="120"/>
                        </Array>
                    </mxGeometry>
                </mxCell>
                <mxCell id="56" style="edgeStyle=none;rounded=1;jumpStyle=arc;html=1;exitX=0.75;exitY=0;exitDx=0;exitDy=0;dashed=1;fontSize=18;endArrow=open;endFill=0;strokeWidth=1;entryX=0;entryY=0.75;entryDx=0;entryDy=0;fillColor=#f5f5f5;strokeColor=#666666;" parent="1" source="35" target="60" edge="1">
                    <mxGeometry relative="1" as="geometry">
                        <mxPoint x="790" y="230" as="targetPoint"/>
                        <Array as="points">
                            <mxPoint x="510" y="190"/>
                            <mxPoint x="790" y="190"/>
                            <mxPoint x="790" y="230"/>
                        </Array>
                    </mxGeometry>
                </mxCell>
                <mxCell id="57" style="edgeStyle=none;rounded=1;jumpStyle=arc;html=1;dashed=1;fontSize=18;endArrow=open;endFill=0;strokeColor=#666666;strokeWidth=1;entryX=0;entryY=0.5;entryDx=0;entryDy=0;fillColor=#f5f5f5;" parent="1" target="61" edge="1">
                    <mxGeometry relative="1" as="geometry">
                        <Array as="points">
                            <mxPoint x="780" y="245"/>
                            <mxPoint x="780" y="270"/>
                        </Array>
                        <mxPoint x="670" y="245" as="sourcePoint"/>
                    </mxGeometry>
                </mxCell>
                <mxCell id="65" value="" style="group" vertex="1" connectable="0" parent="1">
                    <mxGeometry x="768" y="350" width="120" height="110" as="geometry"/>
                </mxCell>
                <mxCell id="7" value="notifier" style="rounded=0;whiteSpace=wrap;html=1;verticalAlign=top;" parent="65" vertex="1">
                    <mxGeometry width="120" height="110" as="geometry"/>
                </mxCell>
                <mxCell id="63" value="- local&lt;br&gt;- telegram?&lt;br&gt;- slack?&lt;br&gt;- push notification?&lt;br&gt;- email?" style="rounded=0;whiteSpace=wrap;html=1;align=left;fillColor=none;strokeColor=none;fontColor=#919191;" vertex="1" parent="65">
                    <mxGeometry x="7" y="20" width="106" height="80" as="geometry"/>
                </mxCell>
                <mxCell id="66" value="strategy interface" style="rounded=0;whiteSpace=wrap;html=1;fillColor=#d80073;fontColor=#ffffff;strokeColor=#A50040;verticalAlign=middle;horizontal=1;" vertex="1" parent="1">
                    <mxGeometry x="220" y="530" width="380" height="50" as="geometry"/>
                </mxCell>
                <mxCell id="3" value="arbitrage" style="rounded=0;whiteSpace=wrap;html=1;fillColor=#008a00;fontColor=#ffffff;strokeColor=#005700;" parent="1" vertex="1">
                    <mxGeometry x="210" y="500" width="120" height="40" as="geometry"/>
                </mxCell>
                <mxCell id="29" value="flashloan arbitrage" style="rounded=0;whiteSpace=wrap;html=1;fillColor=#0050ef;fontColor=#ffffff;strokeColor=#001DBC;" parent="1" vertex="1">
                    <mxGeometry x="350" y="500" width="120" height="40" as="geometry"/>
                </mxCell>
                <mxCell id="47" value="grid" style="rounded=0;whiteSpace=wrap;html=1;fillColor=#6a00ff;fontColor=#ffffff;strokeColor=#3700CC;" parent="1" vertex="1">
                    <mxGeometry x="490" y="500" width="120" height="40" as="geometry"/>
                </mxCell>
                <mxCell id="67" value="" style="group" vertex="1" connectable="0" parent="1">
                    <mxGeometry x="827" y="70" width="260" height="230" as="geometry"/>
                </mxCell>
                <mxCell id="62" value="Encrypted" style="rounded=0;whiteSpace=wrap;html=1;fillColor=#e3c800;strokeColor=#B09500;fontColor=#000000;verticalAlign=top;" parent="67" vertex="1">
                    <mxGeometry x="40" width="220" height="230" as="geometry"/>
                </mxCell>
                <mxCell id="8" value="USER" style="rounded=0;whiteSpace=wrap;html=1;horizontal=0;fontSize=20;" parent="67" vertex="1">
                    <mxGeometry x="21" y="30" width="40" height="190" as="geometry"/>
                </mxCell>
                <mxCell id="58" value="Exchange 1 keys" style="rounded=0;whiteSpace=wrap;html=1;strokeColor=none;" parent="67" vertex="1">
                    <mxGeometry x="75" y="30" width="166" height="40" as="geometry"/>
                </mxCell>
                <mxCell id="59" value="DEX 1 Chain Wallet" style="rounded=0;whiteSpace=wrap;html=1;strokeColor=none;" parent="67" vertex="1">
                    <mxGeometry x="75" y="80" width="166" height="40" as="geometry"/>
                </mxCell>
                <mxCell id="60" value="Exchange 2 keys" style="rounded=0;whiteSpace=wrap;html=1;strokeColor=none;" parent="67" vertex="1">
                    <mxGeometry x="75" y="130" width="166" height="40" as="geometry"/>
                </mxCell>
                <mxCell id="61" value="Exchange 3 keys" style="rounded=0;whiteSpace=wrap;html=1;strokeColor=none;" parent="67" vertex="1">
                    <mxGeometry x="75" y="180" width="166" height="40" as="geometry"/>
                </mxCell>
                <mxCell id="73" value="Reliability" style="rounded=0;whiteSpace=wrap;html=1;" vertex="1" parent="1">
                    <mxGeometry x="1250" y="70" width="160" height="40" as="geometry"/>
                </mxCell>
                <mxCell id="74" value="PILARS" style="text;html=1;strokeColor=none;fillColor=none;align=center;verticalAlign=middle;whiteSpace=wrap;rounded=0;fontStyle=1;fontSize=18;" vertex="1" parent="1">
                    <mxGeometry x="1270" y="20" width="120" height="50" as="geometry"/>
                </mxCell>
                <mxCell id="75" value="Traceability" style="rounded=0;whiteSpace=wrap;html=1;" vertex="1" parent="1">
                    <mxGeometry x="1250" y="120" width="160" height="40" as="geometry"/>
                </mxCell>
                <mxCell id="77" style="edgeStyle=none;rounded=1;jumpStyle=arc;html=1;exitX=0.75;exitY=0;exitDx=0;exitDy=0;entryX=0;entryY=0.5;entryDx=0;entryDy=0;fontSize=18;endArrow=open;endFill=0;strokeColor=#666666;strokeWidth=1;dashed=1;fillColor=#f5f5f5;" edge="1" parent="1" source="15" target="59">
                    <mxGeometry relative="1" as="geometry">
                        <Array as="points">
                            <mxPoint x="374" y="170"/>
                        </Array>
                        <mxPoint x="250" y="230" as="sourcePoint"/>
                        <mxPoint x="912" y="130" as="targetPoint"/>
                    </mxGeometry>
                </mxCell>
                <mxCell id="78" value="Latency" style="rounded=0;whiteSpace=wrap;html=1;" vertex="1" parent="1">
                    <mxGeometry x="1250" y="170" width="160" height="40" as="geometry"/>
                </mxCell>
            </root>
        </mxGraphModel>
    </diagram>
</mxfile>